<?xml version="1.0" standalone="no"?><!DOCTYPE svg PUBLIC "-//W3C//DTD SVG 1.1//EN" "http://www.w3.org/Graphics/SVG/1.1/DTD/svg11.dtd"><svg t="1677470149932" class="icon" viewBox="0 0 1097 1024" version="1.1" xmlns="http://www.w3.org/2000/svg" p-id="7617" xmlns:xlink="http://www.w3.org/1999/xlink" width="214.2578125" height="200"><path d="M68.608 912.018286c-28.452571 0-51.492571 21.504-51.492571 47.981714 0 26.477714 23.04 47.981714 51.492571 47.981714h959.926857c28.452571 0 51.492571-21.504 51.492572-47.981714 0-26.477714-23.04-47.981714-51.492572-47.981714z m835.657143-595.529143c-18.797714-18.724571-50.249143-17.627429-70.363429 2.413714-20.041143 20.114286-21.138286 51.565714-2.413714 70.290286l121.270857 121.270857-129.901714 129.828571c-20.114286 20.114286-21.211429 51.565714-2.413714 70.363429 18.724571 18.724571 50.176 17.627429 70.217142-2.486857l202.678858-202.605714zM68.608 464.018286c-28.452571 0-51.492571 21.504-51.492571 47.981714 0 26.477714 23.04 47.981714 51.492571 47.981714h582.802286c28.452571 0 51.419429-21.504 51.419428-47.981714 0-26.477714-22.966857-47.981714-51.419428-47.981714z m0-448C40.082286 16.018286 17.115429 37.522286 17.115429 64c0 26.477714 23.04 47.981714 51.492571 47.981714h959.926857c28.452571 0 51.492571-21.504 51.492572-47.981714 0-26.477714-23.04-47.981714-51.492572-47.981714z" fill="#2c2c2c" p-id="7618"></path></svg>