<?xml version="1.0" standalone="no"?><!DOCTYPE svg PUBLIC "-//W3C//DTD SVG 1.1//EN" "http://www.w3.org/Graphics/SVG/1.1/DTD/svg11.dtd"><svg t="1677470153656" class="icon" viewBox="0 0 1097 1024" version="1.1" xmlns="http://www.w3.org/2000/svg" p-id="7820" xmlns:xlink="http://www.w3.org/1999/xlink" width="214.2578125" height="200"><path d="M1028.608 912.018286c28.379429 0 51.419429 21.504 51.419429 47.981714 0 26.477714-23.04 47.981714-51.492572 47.981714H68.608c-28.452571 0-51.492571-21.504-51.492571-47.981714 0-26.477714 23.04-47.981714 51.492571-47.981714zM192.804571 316.489143c18.797714-18.724571 50.249143-17.627429 70.363429 2.413714 20.041143 20.114286 21.138286 51.565714 2.413714 70.290286L144.384 510.537143 274.285714 640.292571c20.114286 20.114286 21.211429 51.565714 2.413715 70.363429-18.724571 18.724571-50.176 17.627429-70.217143-2.486857L3.730286 505.563429z m835.657143 147.529143c28.452571 0 51.492571 21.504 51.492572 47.981714 0 26.477714-23.04 47.981714-51.492572 47.981714H445.805714c-28.452571 0-51.419429-21.504-51.419428-47.981714 0-26.477714 22.966857-47.981714 51.419428-47.981714z m0-448c28.452571 0 51.492571 21.504 51.492572 47.981714 0 26.477714-23.04 47.981714-51.492572 47.981714H68.608c-28.452571 0-51.492571-21.504-51.492571-47.981714C17.115429 37.522286 40.228571 16.018286 68.608 16.018286z" fill="#2c2c2c" p-id="7821"></path></svg>