<?xml version="1.0" standalone="no"?><!DOCTYPE svg PUBLIC "-//W3C//DTD SVG 1.1//EN" "http://www.w3.org/Graphics/SVG/1.1/DTD/svg11.dtd"><svg t="1677316911368" class="icon" viewBox="0 0 1024 1024" version="1.1" xmlns="http://www.w3.org/2000/svg" p-id="2805" xmlns:xlink="http://www.w3.org/1999/xlink" width="200" height="200"><path d="M155.576304 768.88772a102.042792 102.042792 0 0 0 102.042792 102.042792h714.320743v51.026696c0 56.358318-21.538481 102.042792-77.896799 102.042792H104.549608A102.042792 102.042792 0 0 1 2.506816 921.957208V309.679257a102.042792 102.042792 0 0 1 102.042792-102.042792h51.026696z" p-id="2806" fill="#515151"></path><path d="M359.661888 819.914416s13.864337-328.917615 399.320463-504.341756l30.601178 74.56851s32.106328 71.091826 86.344716-7.17596l137.7318-234.44297s29.763806-54.757771-26.806504-72.353184L700.684298 0s-61.859534 2.257725-45.885867 59.358018l31.173559 74.441313S199.130249 273.619262 359.714886 819.861418z" p-id="2807" fill="#515151"></path></svg>