<?xml version="1.0" standalone="no"?><!DOCTYPE svg PUBLIC "-//W3C//DTD SVG 1.1//EN" "http://www.w3.org/Graphics/SVG/1.1/DTD/svg11.dtd"><svg t="1677316188054" class="icon" viewBox="0 0 1024 1024" version="1.1" xmlns="http://www.w3.org/2000/svg" p-id="4758" xmlns:xlink="http://www.w3.org/1999/xlink" width="200" height="200"><path d="M1002.600792 1015.551362H654.357549c-11.070422 0-20.044219-8.973797-20.044219-20.044219s8.973797-20.044219 20.044219-20.044218h328.199025V45.93734H53.030989v346.613649c0 11.070422-8.973797 20.044219-20.044218 20.044219s-20.044219-8.973797-20.044219-20.044219V25.893122c0-11.070422 8.973797-20.044219 20.044219-20.044219h969.614021c11.070422 0 20.044219 8.973797 20.044219 20.044219v969.614021c0 11.06942-8.973797 20.044219-20.044219 20.044219z" fill="#515151" p-id="4759"></path><path d="M517.794283 1017.123831H32.986771c-11.070422 0-20.044219-8.973797-20.044219-20.044219V512.273102c0-11.070422 8.973797-20.044219 20.044219-20.044218h484.807512c11.070422 0 20.044219 8.973797 20.044218 20.044218V997.079612c0 11.070422-8.973797 20.044219-20.044218 20.044219z m-464.763294-40.088437h444.719075V532.317321H53.030989V977.035394z" fill="#515151" p-id="4760"></path></svg>